<?xml version="1.0" encoding="UTF-8" standalone="no"?>
<!DOCTYPE svg PUBLIC "-//W3C//DTD SVG 1.1//EN"
 "http://www.w3.org/Graphics/SVG/1.1/DTD/svg11.dtd">
<!-- Generated by graphviz version 2.40.1 (20161225.0304)
 -->
<!-- Title: G Pages: 1 -->
<svg width="102pt" height="520pt"
 viewBox="0.00 0.00 102.00 520.00" xmlns="http://www.w3.org/2000/svg" xmlns:xlink="http://www.w3.org/1999/xlink">
<g id="graph0" class="graph" transform="scale(1 1) rotate(0) translate(4 516)">
<title>G</title>
<polygon fill="#ffffff" stroke="transparent" points="-4,4 -4,-516 98,-516 98,4 -4,4"/>
<!-- A0 -->
<g id="node1" class="node">
<title>A0</title>
<polygon fill="none" stroke="#000000" points="20,-56 20,-88 75,-88 75,-56 20,-56"/>
<text text-anchor="start" x="30.278" y="-69" font-family="Helvetica,sans-Serif" font-size="10.00" fill="#000000">Cinema</text>
<polygon fill="none" stroke="#000000" points="20,0 20,-56 75,-56 75,0 20,0"/>
<text text-anchor="start" x="43.611" y="-37" font-family="Helvetica,sans-Serif" font-size="10.00" fill="#000000">id</text>
<text text-anchor="start" x="34.997" y="-25" font-family="Helvetica,sans-Serif" font-size="10.00" fill="#000000">name</text>
<text text-anchor="start" x="29.7175" y="-13" font-family="Helvetica,sans-Serif" font-size="10.00" fill="#000000">address</text>
</g>
<!-- A1 -->
<g id="node2" class="node">
<title>A1</title>
<polygon fill="none" stroke="#000000" points="4,-238 4,-270 90,-270 90,-238 4,-238"/>
<text text-anchor="start" x="29.2175" y="-251" font-family="Helvetica,sans-Serif" font-size="10.00" fill="#000000">Session</text>
<polygon fill="none" stroke="#000000" points="4,-194 4,-238 90,-238 90,-194 4,-194"/>
<text text-anchor="start" x="30.8875" y="-219" font-family="Helvetica,sans-Serif" font-size="10.00" fill="#000000">cinema</text>
<text text-anchor="start" x="26.999" y="-207" font-family="Helvetica,sans-Serif" font-size="10.00" fill="#000000">time_slot</text>
<polygon fill="none" stroke="#000000" points="4,-138 4,-194 90,-194 90,-138 4,-138"/>
<text text-anchor="start" x="17.8305" y="-175" font-family="Helvetica,sans-Serif" font-size="10.00" fill="#000000">get_cinema()</text>
<text text-anchor="start" x="13.942" y="-151" font-family="Helvetica,sans-Serif" font-size="10.00" fill="#000000">get_time_slot()</text>
</g>
<!-- A1&#45;&gt;A0 -->
<g id="edge1" class="edge">
<title>A1&#45;&gt;A0</title>
<path fill="none" stroke="#000000" d="M47,-125.7599C47,-116.5392 47,-107.2874 47,-98.4946"/>
<polygon fill="none" stroke="#000000" points="47.0001,-125.9981 51,-131.9982 47,-137.9981 43,-131.9981 47.0001,-125.9981"/>
<polygon fill="#000000" stroke="#000000" points="47,-88.4129 51.5001,-98.4128 47,-93.4129 47.0001,-98.4129 47.0001,-98.4129 47.0001,-98.4129 47,-93.4129 42.5001,-98.4129 47,-88.4129 47,-88.4129"/>
<text text-anchor="middle" x="55.4524" y="-103.539" font-family="Helvetica,sans-Serif" font-size="10.00" fill="#000000">cinema 1</text>
<text text-anchor="middle" x="38.5476" y="-116.872" font-family="Helvetica,sans-Serif" font-size="10.00" fill="#000000">1</text>
</g>
<!-- A2 -->
<g id="node3" class="node">
<title>A2</title>
<polygon fill="none" stroke="#000000" points="0,-480 0,-512 94,-512 94,-480 0,-480"/>
<text text-anchor="start" x="33.667" y="-493" font-family="Helvetica,sans-Serif" font-size="10.00" fill="#000000">Movie</text>
<polygon fill="none" stroke="#000000" points="0,-400 0,-480 94,-480 94,-400 0,-400"/>
<text text-anchor="start" x="39.2225" y="-461" font-family="Helvetica,sans-Serif" font-size="10.00" fill="#000000">title</text>
<text text-anchor="start" x="22.8295" y="-449" font-family="Helvetica,sans-Serif" font-size="10.00" fill="#000000">description</text>
<text text-anchor="start" x="28.939" y="-437" font-family="Helvetica,sans-Serif" font-size="10.00" fill="#000000">duration</text>
<text text-anchor="start" x="33.1075" y="-425" font-family="Helvetica,sans-Serif" font-size="10.00" fill="#000000">poster</text>
<text text-anchor="start" x="27.552" y="-413" font-family="Helvetica,sans-Serif" font-size="10.00" fill="#000000">sessions</text>
<polygon fill="none" stroke="#000000" points="0,-320 0,-400 94,-400 94,-320 0,-320"/>
<text text-anchor="start" x="26.1655" y="-381" font-family="Helvetica,sans-Serif" font-size="10.00" fill="#000000">get_title()</text>
<text text-anchor="start" x="9.7725" y="-369" font-family="Helvetica,sans-Serif" font-size="10.00" fill="#000000">get_description()</text>
<text text-anchor="start" x="15.882" y="-357" font-family="Helvetica,sans-Serif" font-size="10.00" fill="#000000">get_duration()</text>
<text text-anchor="start" x="18.661" y="-345" font-family="Helvetica,sans-Serif" font-size="10.00" fill="#000000"> get_poster()</text>
<text text-anchor="start" x="14.495" y="-333" font-family="Helvetica,sans-Serif" font-size="10.00" fill="#000000">get_sessions()</text>
</g>
<!-- A2&#45;&gt;A1 -->
<g id="edge2" class="edge">
<title>A2&#45;&gt;A1</title>
<path fill="none" stroke="#000000" d="M47,-307.6313C47,-298.4078 47,-289.2081 47,-280.312"/>
<polygon fill="none" stroke="#000000" points="47.0001,-307.9246 51,-313.9246 47,-319.9246 43,-313.9245 47.0001,-307.9246"/>
<polygon fill="#000000" stroke="#000000" points="47,-270.0248 51.5001,-280.0247 47,-275.0248 47.0001,-280.0248 47.0001,-280.0248 47.0001,-280.0248 47,-275.0248 42.5001,-280.0248 47,-270.0248 47,-270.0248"/>
<text text-anchor="middle" x="55.4524" y="-285.1509" font-family="Helvetica,sans-Serif" font-size="10.00" fill="#000000">session 1..*</text>
<text text-anchor="middle" x="38.5476" y="-298.7984" font-family="Helvetica,sans-Serif" font-size="10.00" fill="#000000">1</text>
</g>
</g>
</svg>
